<svg version="1.1" id="Layer_1" xmlns="http://www.w3.org/2000/svg" xmlns:xlink="http://www.w3.org/1999/xlink" x="0px" y="0px"
	 width="100%" viewBox="0 0 1024 1024" enable-background="new 0 0 1024 1024" xml:space="preserve">

<path fill="#F891AD" opacity="1.000000" stroke="none" 
	d="
M537.152100,489.982208 
	C518.952820,487.005493 510.620270,470.700531 514.614136,453.188263 
	C515.972107,447.233643 520.557129,444.258209 526.800476,443.996490 
	C529.273865,443.892761 531.755249,443.979431 534.532654,443.979431 
	C535.025330,438.078461 535.719971,432.536774 535.911316,426.977783 
	C536.673401,404.833740 542.639526,384.590820 558.037292,368.076691 
	C571.556824,353.576935 588.470886,344.633026 608.069885,342.389587 
	C622.914551,340.690277 637.742371,341.990021 651.089478,350.479370 
	C665.690491,359.766296 673.138977,376.404724 669.299438,392.484009 
	C665.027649,410.372986 652.893188,418.208618 634.874512,414.713531 
	C633.244812,414.397430 631.614258,414.084961 629.984558,413.768829 
	C615.347656,410.929596 607.091980,416.707336 605.246582,431.327972 
	C604.835449,434.585083 605.186279,437.938385 605.186279,442.096649 
	C611.087402,442.096649 616.842529,442.089203 622.597717,442.097992 
	C641.419189,442.126801 645.366150,445.877777 644.884460,464.575287 
	C644.756104,469.555725 643.570251,474.775665 641.649109,479.375854 
	C639.228516,485.172180 634.041077,487.814087 627.637939,488.107758 
	C620.731995,488.424530 613.840759,489.061279 606.089294,489.619965 
	C607.565491,505.040436 608.784729,519.890991 610.449829,534.691406 
	C613.183960,558.994080 616.272827,583.319946 614.776855,607.798401 
	C613.246704,632.837952 607.957031,657.024780 591.713135,677.194153 
	C577.810852,694.456116 559.664490,704.354431 537.357666,706.087463 
	C518.773254,707.531433 501.645630,703.557678 486.850677,691.793579 
	C479.644073,686.063171 474.612610,678.803955 472.698792,669.520508 
	C469.899933,655.943848 476.116730,643.633423 489.617981,640.392883 
	C519.573608,633.202881 529.918335,610.888306 534.921021,584.099487 
	C539.260559,560.861816 537.806091,537.326599 538.311646,513.113525 
	C538.752563,505.731934 538.935059,499.119385 538.900940,492.507904 
	C538.896606,491.662994 537.762756,490.823944 537.152100,489.982208 
z"/>
<path fill="#F892AD" opacity="1.000000" stroke="none" 
	d="
M79.132156,443.089600 
	C80.721268,421.894989 89.840988,404.498596 106.123726,391.027954 
	C122.863792,377.179016 142.281494,369.712311 164.042206,370.255005 
	C179.801315,370.648071 194.694672,374.884949 206.176178,386.758331 
	C217.376938,398.341431 220.324799,417.933655 213.073013,431.783600 
	C208.354019,440.796234 200.727310,445.565582 190.593277,445.959808 
	C184.774246,446.186188 178.933670,445.943298 173.104843,445.816833 
	C158.202194,445.493408 150.993652,452.409424 150.059082,467.728119 
	C149.948639,469.538452 150.044083,471.361359 150.044083,473.795471 
	C154.771347,473.795471 159.197433,473.887360 163.618271,473.774414 
	C170.597778,473.596039 177.576324,473.030304 184.550491,473.100891 
	C190.226547,473.158325 194.873978,475.656403 197.520844,480.960297 
	C202.981796,491.903168 201.101425,514.763184 190.114960,523.580627 
	C183.967880,528.514160 176.801636,529.265625 169.528915,529.883606 
	C165.592819,530.218018 161.604965,529.943176 156.914948,529.943176 
	C157.750412,536.109436 158.555237,541.774414 159.279617,547.449707 
	C161.149902,562.102783 163.445999,576.721497 164.686356,591.428650 
	C165.663895,603.019592 164.362350,614.457581 155.856003,623.670715 
	C137.793579,643.233826 102.693565,635.955017 94.269585,610.522827 
	C91.758339,602.941406 90.842468,594.688232 90.194923,586.662292 
	C88.822159,569.647461 88.106720,552.579590 87.125938,535.606140 
	C81.586578,535.049561 76.797363,534.790039 72.084900,534.045044 
	C64.204750,532.799255 58.750751,528.086731 55.695553,520.906494 
	C51.756088,511.648193 50.788002,501.959564 52.971317,492.076324 
	C54.827206,483.675293 59.824059,479.151398 68.299675,477.970123 
	C71.744926,477.489990 75.193100,477.030762 79.157806,475.929260 
	C79.783264,467.595825 79.982224,459.894806 79.952965,452.194641 
	C79.941429,449.158630 79.420914,446.124542 79.132156,443.089600 
z"/>
<path fill="#F892AD" opacity="1.000000" stroke="none" 
	d="
M882.112305,623.125244 
	C861.726807,625.789124 844.037903,620.531433 828.917786,607.387573 
	C811.240051,592.020264 803.387085,571.735168 800.964355,548.997253 
	C799.087524,531.382568 798.850159,513.762878 803.023560,496.415802 
	C807.886658,476.202423 817.699951,458.913086 834.959656,446.697632 
	C866.838074,424.135834 910.575623,431.967957 932.968628,464.036377 
	C942.052063,477.044647 946.435669,491.657104 948.129700,507.314545 
	C950.357178,527.904114 949.189819,548.155640 942.979492,567.976990 
	C934.138977,596.192566 916.920410,615.891968 886.992004,622.476074 
	C885.538818,622.795837 884.035889,622.889404 882.112305,623.125244 
M893.440613,544.654480 
	C897.513733,534.677856 896.148071,524.313965 895.392151,514.048523 
	C895.215881,511.654633 893.655579,509.362579 892.283386,506.508301 
	C890.873840,503.695648 889.759583,500.681061 887.999878,498.107941 
	C882.548218,490.136200 872.062012,488.595764 864.928528,495.010559 
	C862.327393,497.349579 860.301575,500.742249 859.005920,504.043793 
	C854.555603,515.384033 855.263000,527.278931 856.660767,539.018372 
	C857.236023,543.850159 859.104797,548.663574 861.123657,553.153320 
	C863.599976,558.660461 868.026245,561.955933 874.438599,562.031494 
	C881.146240,562.110535 885.875183,559.041748 888.932495,553.231384 
	C890.323425,550.588074 891.547791,547.857117 893.440613,544.654480 
z"/>
<path fill="#F892AD" opacity="1.000000" stroke="none" 
	d="
M277.550049,621.543762 
	C243.213989,618.055603 218.527603,592.654114 211.160492,557.231018 
	C206.186920,533.316650 205.757675,509.270233 213.998596,485.913483 
	C224.112793,457.247406 244.303848,439.451508 274.592712,435.340698 
	C310.282227,430.496918 337.837524,448.122345 349.705627,479.276276 
	C362.476776,512.800659 361.544434,546.767212 347.318207,579.854370 
	C335.489716,607.364929 307.432098,623.912842 277.550049,621.543762 
M269.868591,553.479126 
	C273.450134,559.406982 278.263031,563.661255 285.604797,562.827698 
	C292.708344,562.021057 296.967590,557.374939 299.691803,550.920593 
	C304.298798,540.005493 304.938782,528.566101 303.564270,517.134033 
	C302.870148,511.360901 300.943726,505.314362 298.002197,500.316895 
	C290.898102,488.247559 275.697021,488.841156 269.864746,501.490875 
	C262.090637,518.352234 263.189697,535.669617 269.868591,553.479126 
z"/>
<path fill="#F892AD" opacity="1.000000" stroke="none" 
	d="
M477.604340,442.327026 
	C495.965546,452.289337 507.257812,467.720734 512.562073,487.016266 
	C520.156616,514.643433 520.894958,542.535706 511.140594,569.978638 
	C500.633026,599.540894 480.353210,618.128479 448.684845,621.508118 
	C426.363678,623.890320 407.041168,615.833679 392.008575,598.935059 
	C375.066559,579.890076 368.229431,557.095093 367.920502,531.908691 
	C367.727631,516.183472 368.333984,500.729584 373.855591,485.691986 
	C385.489655,454.007324 414.029968,433.457642 446.660675,434.079865 
	C457.445007,434.285492 467.673279,437.184509 477.604340,442.327026 
M423.905060,516.328979 
	C423.766998,523.868713 423.054932,531.458435 423.705505,538.929504 
	C424.097778,543.434387 426.608673,547.754883 428.629669,552.604248 
	C432.166565,555.708191 435.224548,559.994751 439.343048,561.662598 
	C447.188995,564.840027 455.209869,559.778015 459.194580,550.377869 
	C464.173859,538.631592 463.885956,526.324280 462.320160,514.066101 
	C461.722778,509.389374 460.022705,504.678345 457.950806,500.407074 
	C455.018524,494.362030 450.163574,490.619629 442.884705,490.963531 
	C436.059174,491.286041 431.645721,495.185059 429.140503,500.922638 
	C427.043365,505.725586 426.080048,511.023590 423.905060,516.328979 
z"/>
<path fill="#F892AD" opacity="1.000000" stroke="none" 
	d="
M790.916443,537.940918 
	C788.262573,568.519836 778.912903,595.635742 751.002075,612.581177 
	C727.730286,626.710083 694.891235,623.801270 673.874939,606.358154 
	C657.865234,593.070435 649.347168,575.610168 645.716187,555.568115 
	C641.419861,531.854248 641.186096,508.233704 649.841125,485.299438 
	C660.047668,458.253998 678.563538,439.865601 707.746582,435.601532 
	C738.116394,431.164124 770.991211,444.272217 783.588684,478.202423 
	C788.617004,491.745667 790.491821,505.800995 790.714722,520.866333 
	C790.566223,527.058044 790.741333,532.499451 790.916443,537.940918 
M737.282227,516.274536 
	C735.706543,510.888458 734.678406,505.257874 732.411133,500.180634 
	C729.808472,494.352264 724.854187,491.006317 718.119995,491.041412 
	C711.480652,491.076019 706.911316,494.797211 704.422485,500.331268 
	C696.654724,517.602966 696.892273,535.217285 704.056091,552.597046 
	C706.286255,558.007629 710.582031,561.681335 717.030457,562.134888 
	C723.842041,562.613953 728.597717,559.520264 731.907349,553.995361 
	C733.514832,551.312073 735.270874,548.328186 735.589111,545.334656 
	C736.584412,535.973145 736.927124,526.542236 737.282227,516.274536 
z"/>
<path fill="#F891AC" opacity="1.000000" stroke="none" 
	d="
M227.296997,315.799591 
	C229.622391,316.813629 232.066986,317.223145 233.474548,318.653320 
	C235.403458,320.613220 237.683548,323.349701 237.679535,325.749817 
	C237.676056,327.829437 234.976074,330.248413 232.950211,331.871002 
	C231.353546,333.149872 228.959549,333.419983 226.935974,334.181366 
	C217.233124,337.832031 211.887329,345.255981 208.961502,354.834167 
	C208.089767,357.687897 207.553345,360.971069 205.748138,363.121277 
	C203.916565,365.302856 200.700592,367.514923 198.102707,367.501099 
	C195.827911,367.488983 192.949142,364.817749 191.463852,362.575012 
	C189.684250,359.887787 188.905533,356.461853 188.034531,353.262939 
	C185.337097,343.356201 178.614853,337.497375 169.291000,334.141541 
	C168.979385,334.029358 168.632629,334.014221 168.322052,333.899994 
	C164.184036,332.378693 159.261963,331.788727 158.925919,325.816498 
	C158.562775,319.363068 163.557907,317.810944 168.062225,316.257874 
	C178.504456,312.657471 185.025330,305.566071 188.240326,295.135010 
	C189.070602,292.441223 189.757751,289.429291 191.470078,287.355835 
	C193.307236,285.131226 196.213837,282.629242 198.767563,282.500122 
	C201.084671,282.382996 204.158936,284.834900 205.796692,286.991577 
	C207.631485,289.407745 208.355087,292.722992 209.337875,295.720581 
	C212.352890,304.916626 218.009109,311.722656 227.296997,315.799591 
z"/>
<path fill="#F992AD" opacity="1.000000" stroke="none" 
	d="
M810.870850,641.289917 
	C811.901306,644.327271 812.859070,646.989441 813.712341,649.684814 
	C816.750000,659.279785 823.316406,665.424438 832.513489,669.014954 
	C833.907227,669.559082 835.705383,669.680542 836.645813,670.648865 
	C838.814941,672.882019 841.764282,675.319641 842.210266,678.033630 
	C842.843567,681.887207 839.451477,684.176208 835.729736,685.005249 
	C823.246887,687.785950 815.723145,695.556580 812.460449,707.753967 
	C811.902832,709.838318 811.263855,711.926331 810.400208,713.897766 
	C808.848755,717.439697 806.588562,720.207214 802.188293,719.975769 
	C797.971802,719.754089 795.544250,717.154053 794.107605,713.544434 
	C793.190186,711.239563 792.669861,708.775330 791.991394,706.377014 
	C789.167603,696.395142 783.096863,689.429077 773.181274,685.964478 
	C770.988403,685.198303 768.759033,684.410278 766.747986,683.275330 
	C761.761414,680.461121 761.749146,674.597412 766.668640,671.704041 
	C768.239563,670.780029 769.915222,669.943481 771.647339,669.398560 
	C783.624390,665.630737 790.432922,657.355896 792.965820,645.268860 
	C793.135620,644.458618 793.411377,643.670654 793.633606,642.871155 
	C794.770081,638.782471 796.653809,635.463745 801.442627,634.929382 
	C806.208374,634.397644 808.897766,636.991516 810.870850,641.289917 
z"/>
<path fill="#F9799D" opacity="1.000000" stroke="none" 
	d="
M79.082062,443.513428 
	C79.420914,446.124542 79.941429,449.158630 79.952965,452.194641 
	C79.982224,459.894806 79.783264,467.595825 79.407486,475.598877 
	C79.103523,465.246582 79.067741,454.591919 79.082062,443.513428 
z"/>
<path fill="#F9799D" opacity="1.000000" stroke="none" 
	d="
M537.171997,490.431091 
	C537.762756,490.823944 538.896606,491.662994 538.900940,492.507904 
	C538.935059,499.119385 538.752563,505.731934 538.356873,512.643127 
	C537.781860,505.588043 537.486877,498.233978 537.171997,490.431091 
z"/>
<path fill="#F9799D" opacity="1.000000" stroke="none" 
	d="
M790.969116,537.480896 
	C790.741333,532.499451 790.566223,527.058044 790.679810,521.320801 
	C790.986267,526.356934 791.004028,531.688904 790.969116,537.480896 
z"/>
<path fill="#FCF7EE" opacity="1.000000" stroke="none" 
	d="
M892.847656,545.165955 
	C891.547791,547.857117 890.323425,550.588074 888.932495,553.231384 
	C885.875183,559.041748 881.146240,562.110535 874.438599,562.031494 
	C868.026245,561.955933 863.599976,558.660461 861.123657,553.153320 
	C859.104797,548.663574 857.236023,543.850159 856.660767,539.018372 
	C855.263000,527.278931 854.555603,515.384033 859.005920,504.043793 
	C860.301575,500.742249 862.327393,497.349579 864.928528,495.010559 
	C872.062012,488.595764 882.548218,490.136200 887.999878,498.107941 
	C889.759583,500.681061 890.873840,503.695648 892.580444,507.181458 
	C893.280762,509.954651 893.669373,512.057617 894.090088,514.154236 
	C896.184509,524.592896 894.605286,534.882629 892.847656,545.165955 
z"/>
<path fill="#F9799D" opacity="1.000000" stroke="none" 
	d="
M893.144165,544.910217 
	C894.605286,534.882629 896.184509,524.592896 894.090088,514.154236 
	C893.669373,512.057617 893.280762,509.954651 892.804810,507.439117 
	C893.655579,509.362579 895.215881,511.654633 895.392151,514.048523 
	C896.148071,524.313965 897.513733,534.677856 893.144165,544.910217 
z"/>
<path fill="#FCF7EE" opacity="1.000000" stroke="none" 
	d="
M269.681671,553.156372 
	C263.189697,535.669617 262.090637,518.352234 269.864746,501.490875 
	C275.697021,488.841156 290.898102,488.247559 298.002197,500.316895 
	C300.943726,505.314362 302.870148,511.360901 303.564270,517.134033 
	C304.938782,528.566101 304.298798,540.005493 299.691803,550.920593 
	C296.967590,557.374939 292.708344,562.021057 285.604797,562.827698 
	C278.263031,563.661255 273.450134,559.406982 269.681671,553.156372 
z"/>
<path fill="#FCF7EE" opacity="1.000000" stroke="none" 
	d="
M424.614746,516.102417 
	C426.080048,511.023590 427.043365,505.725586 429.140503,500.922638 
	C431.645721,495.185059 436.059174,491.286041 442.884705,490.963531 
	C450.163574,490.619629 455.018524,494.362030 457.950806,500.407074 
	C460.022705,504.678345 461.722778,509.389374 462.320160,514.066101 
	C463.885956,526.324280 464.173859,538.631592 459.194580,550.377869 
	C455.209869,559.778015 447.188995,564.840027 439.343048,561.662598 
	C435.224548,559.994751 432.166565,555.708191 428.339172,551.972168 
	C424.011047,539.876099 423.139099,528.103638 424.614746,516.102417 
z"/>
<path fill="#F9799D" opacity="1.000000" stroke="none" 
	d="
M424.259888,516.215698 
	C423.139099,528.103638 424.011047,539.876099 428.108093,551.749146 
	C426.608673,547.754883 424.097778,543.434387 423.705505,538.929504 
	C423.054932,531.458435 423.766998,523.868713 424.259888,516.215698 
z"/>
<path fill="#FCF7EE" opacity="1.000000" stroke="none" 
	d="
M737.402466,516.706360 
	C736.927124,526.542236 736.584412,535.973145 735.589111,545.334656 
	C735.270874,548.328186 733.514832,551.312073 731.907349,553.995361 
	C728.597717,559.520264 723.842041,562.613953 717.030457,562.134888 
	C710.582031,561.681335 706.286255,558.007629 704.056091,552.597046 
	C696.892273,535.217285 696.654724,517.602966 704.422485,500.331268 
	C706.911316,494.797211 711.480652,491.076019 718.119995,491.041412 
	C724.854187,491.006317 729.808472,494.352264 732.411133,500.180634 
	C734.678406,505.257874 735.706543,510.888458 737.402466,516.706360 
z"/>
</svg>